# xmcd
#
# Track frame offsets:
#	150
#	11327
#	22490
#	39877
#	51667
#	65642
#	75110
#	86107
#	106230
#	117890
#
# Disc length: 1760 seconds
#
# Revision: 1
# Processed by: cddbd v1.5.1PL2 Copyright (c) Steve Scherf et al.
# Submitted via: audiograbber 1.83.01
#
DISCID=7a06de0a
DTITLE=The Crabb Family - Still Holdin' On
DYEAR=1996
DGENRE=Southern Gospel
TTITLE0=More Than A Stone
TTITLE1=The Door
TTITLE2=That's What Champions Are Made Of
TTITLE3=In The Middle Of The Night
TTITLE4=Where We'll Never Die
TTITLE5=Something Going On In The Graveyard
TTITLE6=He's Coming Back For Me
TTITLE7=Still Holdin' On
TTITLE8=This World Is Not My Home
TTITLE9=Something Out Of Nothing
EXTD=
EXTT0=
EXTT1=
EXTT2=
EXTT3=
EXTT4=
EXTT5=
EXTT6=
EXTT7=
EXTT8=
EXTT9=
PLAYORDER=
